<svg fill="#000000" opacity="0.6" xmlns="http://www.w3.org/2000/svg">
    <g>
        <symbol viewBox="0 0 56 56" id="shedule">
            <path fill-rule="evenodd" clip-rule="evenodd" d="M28 5.08a22.92 22.92 0 100 45.84 22.92 22.92 0 000-45.84zM3.68 28a24.32 24.32 0 1148.64 0 24.32 24.32 0 01-48.64 0zM28 10.31a17.69 17.69 0 100 35.38 17.69 17.69 0 000-35.38zM8.91 28a19.09 19.09 0 1138.18 0A19.09 19.09 0 018.9 28zM28 12.84c.39 0 .7.31.7.7v1.02a.7.7 0 01-1.4 0v-1.02c0-.39.31-.7.7-.7zm10.72 4.44a.7.7 0 010 .99l-.72.72a.7.7 0 11-.99-.99l.72-.72a.7.7 0 011 0zm-21.44 0a.7.7 0 01.99 0l.72.72a.7.7 0 11-.99.99l-.72-.72a.7.7 0 010-1zm10.72.24c.39 0 .7.32.7.7v7.28a2.6 2.6 0 011.84 3.03l5.11 2.58a.7.7 0 01-.63 1.25l-5.12-2.59A2.59 2.59 0 0125.4 28c0-1.2.8-2.2 1.9-2.5v-7.28c0-.38.31-.7.7-.7zm0 9.28a1.2 1.2 0 100 2.4 1.2 1.2 0 000-2.4zM12.84 28c0-.39.31-.7.7-.7h1.02a.7.7 0 110 1.4h-1.02a.7.7 0 01-.7-.7zm27.9 0c0-.39.32-.7.7-.7h1.02a.7.7 0 110 1.4h-1.02a.7.7 0 01-.7-.7zM19 37.01a.7.7 0 010 .99l-.72.72a.7.7 0 11-1-.99l.73-.72a.7.7 0 01.99 0zm18.02 0a.7.7 0 01.99 0l.72.72a.7.7 0 01-.99 1l-.72-.73a.7.7 0 010-.99zM28 40.74c.39 0 .7.32.7.7v1.02a.7.7 0 01-1.4 0v-1.02c0-.38.31-.7.7-.7z"/>
        </symbol>
        <symbol viewBox="0 0 56 56" id="teachers">
            <path d="M39.43 51a2.41 2.41 0 01-.7-4.71v-2.6h-3.46v5.47a1.78 1.78 0 01-1.78 1.78H2.83a1.78 1.78 0 01-1.78-1.78V38a7 7 0 014.35-6.37l5.31-2 3.11-1.2v-1.66A6.91 6.91 0 0111.13 22a3.22 3.22 0 01-2.06-5.53 2.53 2.53 0 01-.68-1.75V9.35a5.23 5.23 0 015.47-4.8h4.3c.4 0 2.41 0 2.94.1A2.83 2.83 0 0123.58 7a1.79 1.79 0 00.15.45c.15.1.19.1.73.11A2.56 2.56 0 0127 10.25v5a3.34 3.34 0 01-.11.75 4.17 4.17 0 011.39 2.25h25.07a1.6 1.6 0 011.6 1.6v1.75a1.6 1.6 0 01-1.6 1.6h-.22v18.71a1.78 1.78 0 01-1.78 1.78H40.13v2.56a2.41 2.41 0 01-.7 4.71zm0-3.42a1 1 0 101 1 1 1 0 00-1-1.04zm-9.77 2h3.83a.38.38 0 00.38-.38v-5.51h-4.21zm-21.6 0h20.2v-5.89h-.81a1.78 1.78 0 01-1.78-1.78V31.1h-.05L22 34.7a6.22 6.22 0 01-7.69 0l-3.47-3.62-4.9 1.87a5.66 5.66 0 00-3.44 5v11.2a.38.38 0 00.38.38h3.78V43a.7.7 0 011.4 0zm31.37-7.25h11.92a.38.38 0 00.38-.38V23.17H27.07v18.74a.38.38 0 00.38.38zM15.85 34.1a4.95 4.95 0 004.61 0l-1.87-1.94h-.8zm4.21-2.43l1.49 1.54 2.63-2.67c-1.16-.43-1.83-.69-2.23-.85zm-7.85-1.15l2.57 2.68 1.47-1.53-1.88-2zm5.07.2H19l2-2.14v-1a7.7 7.7 0 01-2.91.53 7.66 7.66 0 01-2.91-.53v1zm5.19-2.33l3.2 1.21v-6.43h-.22a1.58 1.58 0 01-.58-.11 7.15 7.15 0 01-2.4 3.7zM15 25.83a5.64 5.64 0 003.21.87 5.64 5.64 0 003.21-.87c2.43-1.64 2.47-5.13 2.47-5.16v-3.59a3.19 3.19 0 01-1.49-1.46 5.42 5.42 0 01-4.2 1.76l-5.69-.08v3.96a5.54 5.54 0 002.45 4.55zm37.48-4.06h.92a.2.2 0 00.2-.2v-1.75a.2.2 0 00-.2-.2H25.45a.2.2 0 00-.2.2v1.75a.2.2 0 00.2.2zM10.35 17.2a1.8 1.8 0 00.72 3.33v-3.24H11a2.15 2.15 0 01-.65-.09zm14.9.18v.85h1.52a2.77 2.77 0 00-.77-1.1 1.71 1.71 0 01-.75.25zm-13.47-1.49l6.39.09a4.45 4.45 0 003.92-2.23.7.7 0 011.25.32 2 2 0 001.38 1.84 1.56 1.56 0 00.37.06.29.29 0 00.27-.14 1.34 1.34 0 00.16-.61v-5c0-.61-.38-1.26-1-1.26a2.42 2.42 0 01-1.65-.38 2.07 2.07 0 01-.68-1.24C22.06 6.73 22 6.27 20.83 6h-6.97a3.89 3.89 0 00-4.07 3.4v5.33a1.19 1.19 0 00.77 1.12 1.06 1.06 0 00.39.09h.82z"/>
        </symbol>
        <symbol viewBox="0 0 56 56" id="workshop">
            <path d="M16 53.2h-3.18a3 3 0 01-3.13-3.09v-3.34-7.36a6.78 6.78 0 01.73-3.15A6.28 6.28 0 0011 34.2h-.39a1.61 1.61 0 01-1.72-1.68v-.79a1.69 1.69 0 011.72-1.8h1.25V13l-1-3a.67.67 0 010-.37L12 4.14a1.43 1.43 0 011.45-1.34h1.92a1.44 1.44 0 011.47 1.34L18 9.68a.67.67 0 010 .37l-1 3v16.88h1.25a1.69 1.69 0 011.72 1.8v.79a1.61 1.61 0 01-1.73 1.68h-.38a6.28 6.28 0 00.61 2.06 6.78 6.78 0 01.73 3.15v10.7A3 3 0 0116 53.2zm-1.59-1.4H16a1.6 1.6 0 001.73-1.69v-3.33-7.39a5.49 5.49 0 00-.6-2.56 7 7 0 01-.74-2.63h-4a7 7 0 01-.74 2.63 5.37 5.37 0 00-.6 2.56V50.11a1.6 1.6 0 001.73 1.69zm2.65-19h1.11c.31 0 .32-.1.32-.28v-.79c0-.4-.2-.4-.31-.4h-7.54c-.11 0-.31 0-.31.4v.79c0 .18 0 .28.31.28zm-2.65-2.87h1.12V13.59h-2.24v16.34zm0-17.74h1.32l.83-2.42c-.18-.9-1-4.76-1.09-5.36a.55.55 0 00-.07-.24h-1.94s-.06 0-.1.21l-1.09 5.36.83 2.42zm29 40.46a1.32 1.32 0 01-1.5-1.47v-4.64c0-.39-.23-.57-.45-.57h-2.65c-.21 0-.45.18-.45.57v4.64a1.31 1.31 0 01-1.49 1.47c-.93 0-4.34-2.45-4.34-6.74a6.64 6.64 0 012-5 9.17 9.17 0 002.25-6.17V21.35a9.12 9.12 0 00-2.34-6.2 6.88 6.88 0 01-1.89-5 7.76 7.76 0 014-6.82 1.11 1.11 0 011.14 0 1.26 1.26 0 01.67 1.09v5.1c0 .18.07.47.51.47h2.66c.44 0 .51-.29.51-.47V4.41a1.27 1.27 0 01.68-1.09 1.09 1.09 0 011.13 0 7.76 7.76 0 014 6.82 6.87 6.87 0 01-1.88 5 9.05 9.05 0 00-2.34 6.2v13.39a9.17 9.17 0 002.24 6.17 6.64 6.64 0 012 5c-.12 4.3-3.52 6.75-4.45 6.75zM36.9 4.73a6.24 6.24 0 00-3 5.42 5.53 5.53 0 001.56 4.1 10.55 10.55 0 012.67 7.1v13.39a10.67 10.67 0 01-2.58 7.06 5.26 5.26 0 00-1.64 4.13 6.09 6.09 0 003 5.34v-4.73a1.89 1.89 0 011.85-2h2.66a1.89 1.89 0 011.85 2v4.71a6.11 6.11 0 003-5.34 5.24 5.24 0 00-1.64-4.13 10.61 10.61 0 01-2.57-7.06V21.35a10.53 10.53 0 012.66-7.1 5.49 5.49 0 001.56-4.1 6.24 6.24 0 00-3-5.42v4.79a1.82 1.82 0 01-1.91 1.87h-2.56a1.83 1.83 0 01-1.91-1.87zM14.41 49.58a.7.7 0 01-.7-.7v-8.83a.7.7 0 111.4 0v8.83a.7.7 0 01-.7.7zm25.73-8.85a.7.7 0 01-.7-.7V16.1a.7.7 0 011.4 0V40a.7.7 0 01-.7.73z"/>
        </symbol>
    </g>

    <g>
        <symbol id="arrow_back">
            <path d="M10.88 2.88a1.26 1.26 0 00-1.76 0L.71 11.29a1 1 0 000 1.41l8.41 8.41a1.25 1.25 0 101.77-1.77L3.54 12l7.35-7.35c.48-.49.48-1.28-.01-1.77z"/>
        </symbol>
        <symbol id="chevron_right">
            <path fill-rule="evenodd" clip-rule="evenodd" d="M7.39 7.11a.55.55 0 01.78 0l4 4.01c.22.22.22.56 0 .78l-4 4a.55.55 0 11-.77-.78L11 11.51 7.39 7.89a.55.55 0 010-.78z"/>
        </symbol>
        <symbol id="hamburger">
            <path d="M14.67 38h26.66a1.67 1.67 0 000-3.33H14.67c-.92 0-1.67.75-1.67 1.66 0 .92.75 1.67 1.67 1.67zm0-8.33h26.66a1.67 1.67 0 000-3.33H14.67c-.92 0-1.67.74-1.67 1.66 0 .92.75 1.67 1.67 1.67zm-1.67-10c0 .91.75 1.66 1.67 1.66h26.66c.92 0 1.67-.75 1.67-1.66 0-.92-.75-1.67-1.67-1.67H14.67c-.92 0-1.67.75-1.67 1.67z"/>
        </symbol >
        <symbol id="close">
            <path d="M38.49 17.5a1.66 1.66 0 00-2.35 0l-8.15 8.14-8.15-8.15a1.66 1.66 0 10-2.35 2.35l8.15 8.15-8.15 8.15a1.66 1.66 0 102.35 2.35l8.15-8.15 8.15 8.15a1.66 1.66 0 102.35-2.35l-8.15-8.15 8.15-8.15c.63-.64.63-1.7 0-2.34z"/>
        </symbol>
    </g>

    <g>
        <symbol id="fw-1">
            <path fill-rule="evenodd" clip-rule="evenodd" d="M23.8 6.62a18.3 18.3 0 018.68-2.05c3.23 0 6.35.75 8.69 2.05 2.32 1.3 4.04 3.25 4.04 5.7v.32a500.72 500.72 0 01-.02 3.18h2.45c.44 0 .8.36.8.8v5.96a.8.8 0 01-.8.8h-2.55c-.04 1.86-.1 3.76-.16 5.5h1.98c.44 0 .8.37.8.8v.36a23.86 23.86 0 013.9 1.56c2.3 1.16 5.04 3.05 5.98 5.88.45 1.33.76 3.23 1 5.28.22 2.06.37 4.32.47 6.42a174.47 174.47 0 01.17 7.61v.17h-.8.8a.8.8 0 01-.8.8h-7.1l.04.9a.8.8 0 01-.8.83h-36.2a.8.8 0 01-.8-.83l.04-.9h-7.1a.8.8 0 01-.8-.8h.8-.8v-.17a105.93 105.93 0 01.02-2.15c.02-1.41.06-3.36.16-5.46s.24-4.36.48-6.42c.22-2.05.54-3.95.99-5.28.94-2.83 3.68-4.72 5.98-5.88a24.95 24.95 0 013.9-1.56v-.35c0-.44.36-.8.8-.8h1.98a300.5 300.5 0 01-.16-5.51H17.3a.8.8 0 01-.8-.8v-5.96c0-.44.36-.8.8-.8h2.45a620.6 620.6 0 01-.02-3.18v-.32c0-2.45 1.72-4.4 4.05-5.7zm-4.03 10.8H18.1v4.36h1.72l-.06-4.36zm.46 13.07h-1.39v12.25h2.6v-8.82c-.6-1.16-.95-2.4-1.21-3.43zm2.8 5.79v6.46h18.88v-6.46a5.64 5.64 0 01-2.94 1.86 64.86 64.86 0 01-6.34.39h-.28a44.62 44.62 0 01-1.83-.05 64.89 64.89 0 01-4.63-.35 5.64 5.64 0 01-2.85-1.85zm9.46.65h.13a41.22 41.22 0 001.75-.05c1.15-.04 2.71-.14 4.37-.32 1.21-.31 2.35-1.54 3.27-3.23.66-1.2 1-2.56 1.29-3.75a564.31 564.31 0 00.31-16.94v-.32c0-1.61-1.13-3.13-3.22-4.3a16.66 16.66 0 00-7.9-1.85c-3 0-5.85.7-7.92 1.85-2.1 1.17-3.23 2.69-3.23 4.3v.31a479.39 479.39 0 00.1 9.93c.05 2.38.11 4.84.2 7.02.3 1.2.64 2.55 1.3 3.76.92 1.68 2.06 2.9 3.27 3.22a63.38 63.38 0 006.15.37H32.48zm12.23-6.44a15.76 15.76 0 01-1.21 3.43v8.82h2.6V30.49h-1.39zm2.99 12.25h.34c.47 0 .85.28 1.09.49a6.56 6.56 0 011.8 3.27c.07.42.13 1.3.17 2.31a181.15 181.15 0 01.18 6.72v.62h6.35a168.95 168.95 0 00-.18-6.9c-.1-2.08-.24-4.3-.46-6.32a26.4 26.4 0 00-.92-4.95c-.73-2.18-2.95-3.83-5.2-4.96a23.35 23.35 0 00-3.17-1.3v11.02zm2 14.22v-.38a397.17 397.17 0 00-.2-7.7c-.04-1.05-.1-1.8-.15-2.09a4.98 4.98 0 00-1.27-2.36.95.95 0 00-.12-.09h-31a3.25 3.25 0 00-.61.68c-.36.53-.67 1.2-.77 1.77-.06.29-.11 1.04-.16 2.1a180.39 180.39 0 00-.17 6.66l-.02 1.03v.4l-.04.9h34.55l-.04-.9v-.02zm-36.06-.8a547.66 547.66 0 01.07-3.85 182 182 0 01.12-3.5c.04-1.01.1-1.9.17-2.3a6.56 6.56 0 011.8-3.28c.23-.21.62-.49 1.09-.49h.34V31.72a23.57 23.57 0 00-3.18 1.3c-2.24 1.13-4.46 2.78-5.19 4.96a26.4 26.4 0 00-.92 4.95 99.24 99.24 0 00-.46 6.33 172.93 172.93 0 00-.18 6.9h6.34zm31.47-34.38h1.72v-4.36h-1.66l-.06 4.36zm-19.7-7.93a.93.93 0 00-.1 0l-.27.04c-.2.05-.47.14-.74.34-.58.42-.97 1.19-1 2.38 0 .75.1 2.14.27 3.56.18 1.43.43 2.97.73 4.03.22.77.8 1.17 1.27 1.36.46.18.9.21 1.1.21h11.6c.18 0 .62-.03 1.09-.21a2.08 2.08 0 001.27-1.36c.3-1.06.55-2.6.73-4.03.17-1.42.27-2.8.26-3.56-.02-1.2-.41-1.96-.99-2.38a1.93 1.93 0 00-1.12-.38h-14.1zm14.16 1.6h-.04.03zm-14.17 0H39.58c.03.01.08.03.13.07.06.05.32.27.33 1.11.01.65-.08 1.94-.25 3.35-.17 1.4-.41 2.84-.68 3.78-.04.13-.13.23-.33.31-.21.09-.44.1-.5.1h-11.6c-.05 0-.28-.01-.5-.1-.2-.08-.29-.18-.32-.3a27.5 27.5 0 01-.68-3.79c-.17-1.4-.26-2.7-.25-3.35.01-.84.27-1.06.33-1.11a.34.34 0 01.16-.07zm-.03 0h.02a.23.23 0 00-.02 0zm0 0z"/>
        </symbol>
        
        <symbol id="fw-2">
            <path fill-rule="evenodd" clip-rule="evenodd" d="M30.573 2.287h-.196a111.862 111.862 0 00-2.38.015c-1.43.024-3.182.078-4.389.207-2.11.226-3.774 1.587-4.883 3.1-1.1 1.499-1.766 3.297-1.769 4.636v.016l-.001.07a59.868 59.868 0 00-.006 1.253c.002.844.018 2.036.069 3.43.092 2.515.3 5.707.766 8.702h-1.385a.8.8 0 00-.8.8v.009a17.726 17.726 0 00-3.357 1.009c-2.099.873-4.599 2.455-5.521 5.25-.859 2.601-1.03 6.71-1.004 10.072a94.952 94.952 0 00.246 6.055l.008.096.002.025c.155 2.502.614 6.015 1.658 9.028.522 1.508 1.204 2.933 2.101 4.048.902 1.122 2.053 1.966 3.494 2.21 1.026.174 2.45-.006 3.968-.34 1.548-.342 3.301-.869 5.039-1.468 3.23-1.115 6.47-2.502 8.316-3.466 1.848.964 5.101 2.352 8.343 3.466 1.743.6 3.504 1.127 5.056 1.468 1.522.334 2.95.514 3.975.34 1.442-.244 2.592-1.088 3.494-2.21.897-1.115 1.58-2.54 2.102-4.048 1.043-3.013 1.502-6.525 1.658-9.028l.002-.025.008-.096.026-.364a94.84 94.84 0 00.22-5.692c.009-1.155-.006-2.399-.064-3.64a155.814 155.814 0 012.751.444l.19.033.066.012.138-.788-.138.788a.8.8 0 00.276-1.576l-.138.788.138-.788-.069-.012-.193-.034a151.626 151.626 0 00-2.973-.478l-.15-.022c-.147-1.79-.405-3.486-.838-4.798-.923-2.795-3.423-4.377-5.52-5.25a17.723 17.723 0 00-3.358-1.01v-.008a.8.8 0 00-.8-.8h-1.385c.465-2.995.674-6.187.766-8.703a103.413 103.413 0 00.066-4.418 49.557 49.557 0 00-.003-.264l-.001-.07v-.016c-.003-1.339-.67-3.137-1.769-4.636-1.11-1.513-2.773-2.874-4.883-3.1-1.207-.129-2.96-.183-4.389-.207a130.04 130.04 0 00-2.38-.016h-.15l-.04.001h-.01zm11.066 22.065c.554-3.141.794-6.654.894-9.397a101.718 101.718 0 00.065-4.344l-.003-.256-.001-.065V10.253c0-.906-.496-2.384-1.46-3.698-.955-1.304-2.26-2.294-3.762-2.455-1.128-.12-2.816-.175-4.245-.198a128.567 128.567 0 00-2.35-.016h-.146l-.05.001v-.03.03h-.012v-.054.054h-.196a111.062 111.062 0 00-2.35.015c-1.43.023-3.118.078-4.245.198-1.503.16-2.807 1.151-3.763 2.455-.964 1.314-1.459 2.792-1.459 3.698V10.29l-.001.065-.003.256c-.003.224-.005.553-.003.968.002.83.017 2.003.067 3.376.1 2.743.34 6.256.895 9.397.27 1.113.601 2.054 1.848 5.28.209.54.822 1.076 1.658 1.533.803.439 1.65.716 2.072.816.754.179 2.104.277 3.327.327a60.999 60.999 0 002.015.049h.338a54.703 54.703 0 001.99-.049c1.21-.05 2.547-.148 3.302-.327a9.203 9.203 0 002.072-.816c.835-.457 1.449-.993 1.658-1.534 1.246-3.225 1.579-4.166 1.848-5.279zM30.6 33.157v.8h-.181l-.485-.006a63.305 63.305 0 01-1.585-.044c-1.204-.05-2.703-.15-3.63-.37a10.787 10.787 0 01-2.47-.968 8.089 8.089 0 01-.805-.5l.137 9.177c2.181.644 5.366 1.816 9.033 3.337 3.382-1.38 6.751-2.643 8.95-3.32l.14-9.194c-.268.19-.542.356-.805.5-.943.515-1.926.84-2.47.969-.927.22-2.412.32-3.604.37a61.986 61.986 0 01-2.046.049H30.602l-.001-.8zm10.734-3.082l-.163 10.755a18.865 18.865 0 012.779-.395v-15.12h-.91c-.282 1.018-.703 2.162-1.706 4.76zm4.216-3.917v14.287c.488.04.935.114 1.343.22.096-.728.182-1.377.254-1.898.052-.373.097-.684.132-.915.018-.114.034-.213.048-.292.01-.058.028-.157.054-.237.09-.285.28-.872.793-1.374.535-.524 1.33-.874 2.466-.874.687 0 1.817.12 3 .277-.142-1.555-.373-2.98-.732-4.067-.701-2.126-2.66-3.46-4.615-4.274a16.127 16.127 0 00-2.743-.853zm8.205 10.824c-1.276-.174-2.467-.307-3.115-.307-.786 0-1.156.23-1.346.417-.208.203-.304.452-.38.69a62.646 62.646 0 00-.181 1.204c-.087.622-.194 1.428-.313 2.341a3.664 3.664 0 011.435 1.764c.32.838.318 1.743.125 2.58-.338 1.467-1.315 2.918-2.569 3.643l-.312 2.52-.145 1.182-.794-.096.794.097a.8.8 0 01-1.588-.195v-.001l.145-1.183.19-1.534-13.306 6.069c1.816.859 4.408 1.927 7.016 2.824 1.71.588 3.408 1.095 4.88 1.418 1.502.33 2.667.444 3.364.326.95-.161 1.78-.723 2.515-1.635.739-.92 1.347-2.157 1.836-3.57.978-2.824 1.423-6.18 1.574-8.611v-.017l.001-.006.002-.023.007-.09.026-.354a93.38 93.38 0 00.216-5.592c.01-1.255-.01-2.577-.077-3.861zm-9.012 5.03H44.753c1.098.005 1.895.19 2.456.463.631.307.978.73 1.153 1.188.181.473.2 1.044.06 1.648-.288 1.247-1.178 2.37-2.063 2.744a1.954 1.954 0 01-.102.04.8.8 0 00-.063.025l-15.977 7.288a.813.813 0 00-.054.027c-1.646.906-5.037 2.384-8.452 3.562-1.704.588-3.395 1.095-4.862 1.418-1.497.33-2.658.444-3.355.326-.95-.161-1.78-.723-2.515-1.635-.74-.92-1.347-2.157-1.836-3.57-.978-2.824-1.423-6.18-1.574-8.611l-.001-.017v-.006l-.003-.023-.007-.09-.025-.354a93.358 93.358 0 01-.216-5.592c-.026-3.379.158-7.239.923-9.558.702-2.126 2.66-3.46 4.616-4.274a16.127 16.127 0 012.743-.853v14.287a7.067 7.067 0 00-1.919.403c-1.52.57-2.344 1.66-2.575 2.918-.222 1.208.112 2.484.697 3.517.577 1.017 1.468 1.919 2.518 2.306l4.52 2.062a.8.8 0 00.824-.098c.602-.47 2.003-1.232 3.914-2.145 1.883-.9 4.186-1.912 6.529-2.885 4.08-1.696 8.206-3.242 10.442-3.885a13.558 13.558 0 01.902-.232c1.317-.282 2.403-.397 3.293-.394zm-27.545-1.577c.832.05 1.756.178 2.776.394l-.16-10.755c-1.004-2.598-1.424-3.74-1.707-4.758h-.91v15.12zm3.359 2.183c-.32-.087-.607-.158-.86-.212-2.667-.571-4.396-.458-5.456-.06-1.009.378-1.436 1.019-1.564 1.71-.137.743.063 1.638.516 2.438.457.804 1.099 1.387 1.698 1.6a.8.8 0 01.064.026l4.127 1.883c.843-.563 2.208-1.276 3.806-2.039 1.65-.788 3.608-1.657 5.629-2.51-3.345-1.349-6.123-2.333-7.916-2.824a.8.8 0 01-.044-.012zm3.569-31.456H37.023c.371 0 .71-.001.978.024.304.03.72.104 1.042.43.315.318.395.733.43 1.043.033.298.039.679.045 1.11l.002.113c.023 1.467-.318 4.112-.891 6.143-.204.72-.705 1.158-1.24 1.395-.51.228-1.07.286-1.52.286H25.28c-.449 0-1.009-.058-1.52-.286-.534-.238-1.036-.674-1.239-1.395-.573-2.031-.914-4.676-.891-6.143l.001-.112c.007-.432.013-.813.046-1.11.035-.311.114-.726.43-1.045.322-.325.738-.4 1.042-.429.268-.025.606-.025.978-.024zm-.897 2.685v.06c-.02 1.291.294 3.78.83 5.683.048.166.15.279.351.369.226.1.535.147.87.147h10.588c.334 0 .644-.047.87-.147.202-.09.303-.203.35-.369.537-1.902.852-4.392.831-5.683v-.06c-.008-.487-.013-.792-.037-1.01a1.656 1.656 0 00-.007-.055l-.027-.003c-.185-.017-.432-.017-.822-.017H24.123c-.39 0-.638 0-.823.017a.773.773 0 00-.026.003 1.912 1.912 0 00-.007.055c-.024.218-.03.523-.037 1.01zm-.72 9.433a.8.8 0 01.955-.607c.623.14 3.048.454 7.136.454 4.086 0 6.46-.315 7.084-.453a.8.8 0 11.348 1.561c-.79.176-3.298.492-7.432.492-4.133 0-6.694-.316-7.484-.492a.8.8 0 01-.607-.955z"/>
        </symbol>

        <symbol id="fw-3">
            <path fill-rule="evenodd" clip-rule="evenodd" d="M54.2 30.74c.5-.57.97-1.15 1.36-1.71a7.2 7.2 0 001.13-2.25c.4-1.6.6-3.07.5-4.58-.1-1.52-.53-3.04-1.36-4.74a14.14 14.14 0 00-8.62-7.48 17.5 17.5 0 00-4.26-.83 8.23 8.23 0 00-3.96.88c-.76.37-1.63 1.1-2.45 1.91-.84.83-1.71 1.81-2.49 2.74a72.51 72.51 0 00-2.32 2.93 11.22 11.22 0 00-4.4-2.06c-1.74-.33-3.51-.04-5.57.82a18.7 18.7 0 00-3.87 2.42 57.44 57.44 0 00-3.92 3.37 94.03 94.03 0 00-4.62 4.6 17.27 17.27 0 00-2.7 3.94c-1.23 2.49-1.97 5.91.52 9 .59.72 1.38 1.49 2.3 2.27A58.52 58.52 0 004.57 61a.8.8 0 101.6.09A57.08 57.08 0 0110.76 43l.7.53a86.52 86.52 0 006.12 4.08c3.94 2.42 8.14 4.73 11.22 6.37-1.32 1.2-2.26 2.04-2.46 2.2-1.3 1.1-1.05 2.96-.07 4 .59.63 1.4.85 2.13.82a3 3 0 001.97-.8c.25-.25 1.88-1.76 3.85-3.56 1.54.31 3.1-.13 4.19-1.05a3.88 3.88 0 001.33-3.96 123.6 123.6 0 012.05-1.77c.47-.32.84-.52 1.17-.56.26-.03.6.02 1.05.47.96.95 3.15 3.16 4.12 4.15l.46.46c.2.21.49.34.7.41.26.09.54.14.83.16.56.05 1.32-.03 1.9-.51 1.3-1.07 1.17-2.97.06-4.09-.2-.19-.62-.64-1.17-1.22v-6.92a5.2 5.2 0 00-.73-2.49c-.42-.75-.96-1.45-1.5-2.03a17.87 17.87 0 00-1.42-1.42l.38-.39.08-.08.5.45a.8.8 0 001.03.02h.01l.03-.02.09-.08a44.2 44.2 0 001.48-1.28c.93-.84 2.15-1.98 3.26-3.19a.8.8 0 00.09-.97zm-11.3-20a6.64 6.64 0 00-3.22.73c-.5.25-1.21.81-2.02 1.61-.8.78-1.62 1.72-2.38 2.63a70.97 70.97 0 00-2.68 3.42l-.04.05-.03.04-.08.13a82.89 82.89 0 00-2.28 3.7c-.3.55-.5.95-.56 1.16-.05.16-.09.58-.06 1.26.03.66.1 1.46.24 2.32.27 1.72.72 3.59 1.3 4.85a18.97 18.97 0 002.32 3.87 7.09 7.09 0 003.16 2.42c1.32.44 2.16.57 2.8.58.47 0 .84-.04 1.28-.1l.6-.08h-.01s.04 0 .14-.05a12.98 12.98 0 001.57-1.13 45.98 45.98 0 003.55-3.37l.04-.04L38 27a.8.8 0 01-.05-1.14l4.43-4.68a.8.8 0 011.1-.05l9.55 8.51c.46-.52.88-1.04 1.22-1.54a5.7 5.7 0 00.89-1.72c.37-1.5.55-2.8.46-4.08-.1-1.28-.45-2.6-1.2-4.15a12.54 12.54 0 00-7.63-6.64 16.01 16.01 0 00-3.87-.77zm9.49 20.48L43 22.85l-3.34 3.53 9.1 8.22a57.66 57.66 0 003.62-3.38zm-6.27 6.2c-.66.64-1.42 1.35-2.14 1.95-.45.39-.9.74-1.3 1a3.12 3.12 0 01-1.72.61c-.48.07-1.02.14-1.63.13a11 11 0 01-3.26-.66 8.66 8.66 0 01-3.9-2.93 20.55 20.55 0 01-2.52-4.2 21.17 21.17 0 01-1.44-5.3c-.14-.9-.23-1.76-.26-2.48a6.06 6.06 0 01.13-1.79c.11-.4.4-.94.7-1.48a44.24 44.24 0 012.02-3.32l.02-.03a9.68 9.68 0 00-3.78-1.8c-1.35-.25-2.8-.06-4.66.73-1 .42-2.22 1.21-3.52 2.21-1.29 1-2.6 2.16-3.8 3.27a92.37 92.37 0 00-3.92 3.87l-.61.64a15.61 15.61 0 00-2.45 3.56c-1.1 2.25-1.58 4.92.33 7.29a22.86 22.86 0 004 3.56 84.94 84.94 0 006 4c4.35 2.68 9.02 5.2 12.14 6.87l1.68.88 1.4.74a3.37 3.37 0 003.75-.36 2.29 2.29 0 00.7-2.7c-.1-.26-.25-.54-.46-.83-.35-.48-.98-1.19-1.84-2.05-2.51-2.53-6.67-6.18-10.21-9.21a502.35 502.35 0 00-6.32-5.3l-.13-.11a.8.8 0 011.02-1.24l.13.1a303.13 303.13 0 011.77 1.48l4.57 3.85c3.3 2.83 7.17 6.22 9.76 8.76l4.06-3.68c.89-.8 1.97-1.02 2.9-.94.91.08 1.78.45 2.3.98.3.3 1.3 1.4 2.45 2.62l.02.02 1.21 1.3v-5.21c0-.51-.18-1.1-.53-1.7a9.8 9.8 0 00-1.28-1.75 16.3 16.3 0 00-1.32-1.3l-.06-.06zM37.5 48.26a16.94 16.94 0 011.56 1.84l.89-.78c.42-.36.77-.66.95-.78a4.33 4.33 0 011.88-.82c.81-.1 1.61.18 2.35.9a553.02 553.02 0 014.58 4.6c0 .02.04.03.1.06.12.03.27.07.44.08.37.03.63-.05.76-.16.44-.36.52-1.14-.05-1.72L49.52 50l-2.64-2.83-2.4-2.56c-.2-.2-.67-.45-1.3-.5-.58-.06-1.2.09-1.7.54l-4 3.62zm-6 7.16c-.35-.2-.75-.4-1.2-.64a230.7 230.7 0 01-2.93 2.64c-.4.33-.46 1.1.07 1.66.2.21.52.33.91.32.4-.02.73-.17.91-.34.25-.25 1.62-1.52 3.32-3.08l-1.07-.56z"/>
            <path fill-rule="evenodd" clip-rule="evenodd" d="M58.62 41.42c.45 0 .8.36.8.8v9.63a.8.8 0 01-1.38.55l-2.88-3.07 1.09 7.98a.8.8 0 01-.92.9l-9.7-1.63 3 3.78a.8.8 0 01-.63 1.3h-8.13a.8.8 0 010-1.6h6.48l-3.25-4.11a.8.8 0 01.75-1.29l10.67 1.79-1.28-9.37a.8.8 0 011.37-.66l3.22 3.41v-7.61c0-.44.35-.8.8-.8zm0 12.63c.45 0 .8.36.8.8v6a.8.8 0 01-.8.8h-7.1a.8.8 0 010-1.6h6.3v-5.2c0-.44.36-.8.8-.8z"/>
        </symbol>
    </g>

    <g>
        <symbol viewBox="0 0 22 22" id="contants-mail">
            <path d="M18.3333 3.66663H3.66659C2.65825 3.66663 1.84242 4.49163 1.84242 5.49996L1.83325 16.5C1.83325 17.5083 2.65825 18.3333 3.66659 18.3333H18.3333C19.3416 18.3333 20.1666 17.5083 20.1666 16.5V5.49996C20.1666 4.49163 19.3416 3.66663 18.3333 3.66663ZM18.3333 7.33329L10.9999 11.9166L3.66659 7.33329V5.49996L10.9999 10.0833L18.3333 5.49996V7.33329Z"/>
        </symbol>
        <symbol viewBox="0 0 22 22" id="contants-phone">
            <path d="M18.3425 14.0983C17.215 14.0983 16.1242 13.915 15.1067 13.585C14.7858 13.475 14.4283 13.5575 14.1808 13.805L12.7417 15.6108C10.1475 14.3733 7.71833 12.0358 6.42583 9.35L8.21333 7.82833C8.46083 7.57167 8.53417 7.21417 8.43333 6.89333C8.09417 5.87583 7.92 4.785 7.92 3.6575C7.92 3.1625 7.5075 2.75 7.0125 2.75H3.84083C3.34583 2.75 2.75 2.97 2.75 3.6575C2.75 12.1733 9.83583 19.25 18.3425 19.25C18.9933 19.25 19.25 18.6725 19.25 18.1683V15.0058C19.25 14.5108 18.8375 14.0983 18.3425 14.0983Z"/>
        </symbol>
        <symbol viewBox="0 0 22 22" id="contants-pin">
            <path d="M10.9999 1.83337C7.45242 1.83337 4.58325 4.70254 4.58325 8.25004C4.58325 13.0625 10.9999 20.1667 10.9999 20.1667C10.9999 20.1667 17.4166 13.0625 17.4166 8.25004C17.4166 4.70254 14.5474 1.83337 10.9999 1.83337ZM10.9999 10.5417C9.73492 10.5417 8.70825 9.51504 8.70825 8.25004C8.70825 6.98504 9.73492 5.95837 10.9999 5.95837C12.2649 5.95837 13.2916 6.98504 13.2916 8.25004C13.2916 9.51504 12.2649 10.5417 10.9999 10.5417Z"/>
        </symbol>
        <symbol viewBox="0 0 22 22" id="contants-shedule">
            <path d="M11.4583 2.75C6.66875 2.75 2.75 6.66875 2.75 11.4583C2.75 16.2479 6.66875 20.1667 11.4583 20.1667C16.2479 20.1667 20.1667 16.2479 20.1667 11.4583C20.1667 6.66875 16.2479 2.75 11.4583 2.75ZM15.1158 15.1158L10.5875 12.3292V7.10417H11.8938V11.6325L15.8125 13.9838L15.1158 15.1158Z"/>
        </symbol>
    </g>
</svg>
