<svg width="129" height="17" viewBox="0 0 129 17" fill="#000000" xmlns="http://www.w3.org/2000/svg">
<path opacity="0.85" d="M0.68 0.423999H6.008L9.848 11.56L13.64 0.423999H18.656V16H15.272V4.48H15.2L11.264 16H8.264L4.208 4.48H4.112V16H0.68V0.423999ZM26.1361 0.423999H30.6961L36.3121 16H32.5201L31.1281 11.896H25.4401L24.0721 16H20.3761L26.1361 0.423999ZM30.3121 9.4L28.3441 3.544H28.2481L26.2801 9.4H30.3121ZM38.0394 0.423999H44.2794C45.7994 0.423999 46.9994 0.527999 47.8794 0.735999C48.7754 0.943999 49.4234 1.312 49.8234 1.84C50.2394 2.352 50.4474 3.072 50.4474 4V6.952C50.4474 7.976 50.2234 8.776 49.7754 9.352C49.3434 9.928 48.6474 10.336 47.6874 10.576C46.7434 10.816 45.4634 10.936 43.8474 10.936H41.7834V16H38.0394V0.423999ZM44.1594 8.368C45.1354 8.368 45.8234 8.256 46.2234 8.032C46.6234 7.792 46.8234 7.392 46.8234 6.832V4.336C46.8234 3.824 46.6314 3.488 46.2474 3.328C45.8794 3.168 45.1674 3.088 44.1114 3.088H41.7834V8.368H44.1594ZM53.0863 0.423999H56.8303V11.08L63.5503 0.423999H67.2943V16H63.5503V5.176L56.8303 16H53.0863V0.423999ZM77.5524 16.24C76.8484 16.24 76.2164 16.208 75.6564 16.144C75.1124 16.08 74.5124 15.96 73.8564 15.784C73.1204 15.592 72.5124 15.344 72.0324 15.04C71.5524 14.72 71.1524 14.28 70.8324 13.72C70.4964 13.16 70.3284 12.496 70.3284 11.728V4.888C70.3284 1.752 72.7364 0.183999 77.5524 0.183999C78.7844 0.183999 80.4324 0.359999 82.4964 0.711999V3.52C80.6404 3.072 79.0084 2.848 77.6004 2.848C77.0084 2.848 76.5444 2.864 76.2084 2.896C75.8884 2.928 75.5524 3.008 75.2004 3.136C74.4484 3.392 74.0724 3.96 74.0724 4.84V11.464C74.0724 12.872 75.3604 13.576 77.9364 13.576C79.0404 13.576 80.5924 13.344 82.5924 12.88V15.712C80.8804 16.064 79.2004 16.24 77.5524 16.24ZM84.9847 0.423999H91.2967C92.7847 0.423999 93.9287 0.535999 94.7287 0.759999C95.5447 0.967999 96.1207 1.312 96.4567 1.792C96.7927 2.256 96.9607 2.912 96.9607 3.76V5.68C96.9607 6.112 96.7847 6.52 96.4327 6.904C96.0967 7.288 95.6967 7.552 95.2327 7.696V7.816C95.8407 7.88 96.3927 8.144 96.8887 8.608C97.4007 9.056 97.6567 9.56 97.6567 10.12V12.52C97.6567 13.784 97.1527 14.68 96.1447 15.208C95.1367 15.736 93.5767 16 91.4647 16H84.9847V0.423999ZM91.2967 6.76C91.8887 6.76 92.3287 6.712 92.6167 6.616C92.9047 6.52 93.0967 6.368 93.1927 6.16C93.3047 5.936 93.3607 5.616 93.3607 5.2V4.432C93.3607 4.064 93.3127 3.792 93.2167 3.616C93.1207 3.424 92.9207 3.288 92.6167 3.208C92.3287 3.128 91.8647 3.088 91.2247 3.088H88.7287V6.76H91.2967ZM91.3927 13.336C92.3047 13.336 92.9527 13.232 93.3367 13.024C93.7207 12.816 93.9127 12.48 93.9127 12.016V10.768C93.9127 10.192 93.7607 9.784 93.4567 9.544C93.1687 9.304 92.6487 9.184 91.8967 9.184H88.7287V13.336H91.3927ZM104.347 0.423999H108.907L114.523 16H110.731L109.339 11.896H103.651L102.283 16H98.5871L104.347 0.423999ZM108.523 9.4L106.555 3.544H106.459L104.491 9.4H108.523ZM116.25 0.423999H122.49C124.01 0.423999 125.21 0.527999 126.09 0.735999C126.986 0.943999 127.634 1.312 128.034 1.84C128.45 2.352 128.658 3.072 128.658 4V6.952C128.658 7.976 128.434 8.776 127.986 9.352C127.554 9.928 126.858 10.336 125.898 10.576C124.954 10.816 123.674 10.936 122.058 10.936H119.994V16H116.25V0.423999ZM122.37 8.368C123.346 8.368 124.034 8.256 124.434 8.032C124.834 7.792 125.034 7.392 125.034 6.832V4.336C125.034 3.824 124.842 3.488 124.458 3.328C124.09 3.168 123.378 3.088 122.322 3.088H119.994V8.368H122.37Z"/>
</svg>
