<svg xmlns="http://www.w3.org/2000/svg" viewBox="0 0 96 96">
  <path d="M20.5 83.4c-.7 0-1.3-.3-1.8-.8L15 79c-.5-.5-.8-1.1-.8-1.8s.3-1.4.8-1.8l10.2-10.2V23.9c0-.9.8-1.7 1.7-1.7h45.2c.9 0 1.7.8 1.7 1.7v48.5c0 .9-.8 1.7-1.7 1.7H30.9l-8.5 8.5c-.6.6-1.3.8-1.9.8zm6-17.4L16.1 76.4c-.2.2-.3.4-.3.7 0 .3.1.5.3.7l3.7 3.7c.4.4 1 .4 1.4 0l8.8-8.8 5.9-5.9-5.1-5.1-4.3 4.3zm6 6.5h39.6c.1 0 .1 0 .1-.1V23.9c0-.1 0-.1-.1-.1H26.9c-.1 0-.1 0-.1.1v39.6l3.5-3.5 2.4-2.4c-.9-1.6-1.6-3.3-2-5.1 0-.2-.1-.4-.1-.6-.2-1.2-.4-2.5-.4-3.8 0-1.3.1-2.7.4-3.9l.1-.3c2-8.8 9.9-15.1 18.9-15.1 9 0 16.9 6.4 18.9 15.1l.1.2c.3 1.3.4 2.6.4 4 0 1.3-.1 2.6-.4 3.8 0 .2-.1.4-.1.6-2 8.8-9.8 15-18.9 15-3.3 0-6.6-.9-9.5-2.5l-2.4 2.4-5.2 5.1zm7.8-9.2c2.8 1.7 5.9 2.6 9.2 2.6 8 0 14.8-5.2 17-12.8H32.4c.4 1.5 1.1 2.9 1.9 4.2 1.5 2.5 3.5 4.6 6 6zm-8.4-2.7l5.1 5.1 1.5-1.5c-2-1.4-3.7-3.1-5.1-5.1l-1.5 1.5zm30.7-9h4.3c.2-1.1.3-2.3.3-3.4s-.1-2.2-.3-3.2h-4.3c1.2 2 1.2 4.4 0 6.6zm-6.1 0h4.3c1.5-2.1 1.5-4.5 0-6.6h-4.3c1.1 2 1.1 4.4 0 6.6zm-6.2 0h4.3c1.5-2.1 1.5-4.5 0-6.6h-4.3c1.1 2 1.1 4.4 0 6.6zm-6.2 0h4.3c1.5-2.1 1.5-4.5 0-6.6h-4.3c1.1 2 1.1 4.4 0 6.6zm-6.2 0h4.3c1.5-2.1 1.5-4.5 0-6.6h-4.3c1.2 2 1.2 4.4 0 6.6zm-5.9 0h4c1.5-2.1 1.5-4.5 0-6.6h-4c-.2 1.1-.3 2.2-.3 3.2 0 1.1.1 2.2.3 3.4zm29.2-8.3h5.4c-2.1-7.5-9.2-12.9-17.1-12.9-7.9 0-14.9 5.4-17.1 12.9H61.2z" opacity=".85" fill="#0d47a1"/>
</svg>
