<svg xmlns="http://www.w3.org/2000/svg" viewBox="0 0 96 96">
  <path d="M71.1 79.8H29c-1 0-1.8-.8-1.8-1.8v-2.3H25c-1 0-1.8-.8-1.8-1.8V18c0-1 .8-1.8 1.8-1.8h32.3c.7 0 1.4.3 1.9.8l3.2 3.2h8.8c1 0 1.8.8 1.8 1.8v56c-.1 1-.9 1.8-1.9 1.8zm-42.2-4V78c0 .1.1.2.2.2h42.1c.1 0 .2-.1.2-.2V22c0-.1-.1-.2-.2-.2H64l4.1 4.1c.5.5.8 1.2.8 1.9V74c0 1-.8 1.8-1.8 1.8H28.9zm-.8-1.6h39c.1 0 .2-.1.2-.2V28.8H58c-1 0-1.8-.8-1.8-1.8v-9.3H25c-.1 0-.2.1-.2.2V74c0 .1.1.2.2.2h3.1zM57.8 18v9.1c0 .1.1.2.2.2h9.1c0-.1-.1-.1-.1-.2l-9-9c-.1 0-.1-.1-.2-.1zM38.1 63.8H32c-1 0-1.8-.8-1.8-1.8v-6c0-1 .8-1.8 1.8-1.8h6.1c1 0 1.8.8 1.8 1.8v6.1c-.1.9-.9 1.7-1.8 1.7zM32 55.9c-.1 0-.2.1-.2.2v6.1c0 .1.1.2.2.2h6.1c.1 0 .2-.1.2-.2V56c0-.1-.1-.2-.2-.2H32zm29 6H44c-.4 0-.8-.4-.8-.8s.4-.8.8-.8h17c.4 0 .8.4.8.8s-.3.8-.8.8zm-8-4h-9c-.4 0-.8-.4-.8-.8s.4-.8.8-.8h9c.4 0 .8.4.8.8s-.3.8-.8.8zm-14.9-7.1H32c-1 0-1.8-.8-1.8-1.8v-6c0-1 .8-1.8 1.8-1.8h6.1c1 0 1.8.8 1.8 1.8v6.1c-.1 1-.9 1.7-1.8 1.7zM32 42.9c-.1 0-.2.1-.2.2v6.1c0 .1.1.2.2.2h6.1c.1 0 .2-.1.2-.2V43c0-.1-.1-.2-.2-.2H32zm29 6H44c-.4 0-.8-.4-.8-.8s.4-.8.8-.8h17c.4 0 .8.4.8.8s-.3.8-.8.8zm-8-4h-9c-.4 0-.8-.4-.8-.8s.4-.8.8-.8h9c.4 0 .8.4.8.8s-.3.8-.8.8zm-14.9-7.1H32c-1 0-1.8-.8-1.8-1.8v-6-.2l-.9-.8c-.3-.3-.3-.8 0-1.1.3-.3.8-.3 1.1 0l.6.6c.3-.1.5-.2.9-.2H38c.3 0 .6.1.8.2l1.5-1.6c.3-.3.8-.3 1.1 0 .3.3.3.8 0 1.1l-1.8 1.8V36c.2 1-.6 1.8-1.5 1.8zm-6.3-6.4v4.7c0 .1.1.2.2.2h6.1c.1 0 .2-.1.2-.2v-4.7l-1.9 1.9c-.7.7-1.8.7-2.5 0l-2.1-1.9zm.7-1.6l2.4 2.4c.1.1.2.1.2 0l2.3-2.4h-4.9zM61 35.9H44c-.4 0-.8-.4-.8-.8s.4-.8.8-.8h17c.4 0 .8.4.8.8s-.3.8-.8.8zm-8-4.1h-9c-.4 0-.8-.4-.8-.8s.4-.8.8-.8h9c.4 0 .8.4.8.8s-.3.8-.8.8z" opacity=".85" fill="#0d47a1"/>
</svg>
