<svg xmlns="http://www.w3.org/2000/svg" viewBox="0 0 96 96">
  <path d="M48 81.7c-1.6 0-2.9-1.3-2.9-2.9 0-1.3.9-2.4 2-2.7v-2.7H22c-2.1 0-3.8-1.7-3.8-3.8V27.9h-.9c-.6 0-1.1-.5-1.1-1.1v-3.4c0-.6.5-1.1 1.1-1.1h61.3c.6 0 1.1.5 1.1 1.1v3.4c0 .6-.5 1.1-1.1 1.1h-.9v41.7c0 2.1-1.7 3.8-3.8 3.8H48.8v2.7c1.2.3 2.1 1.4 2.1 2.7 0 1.6-1.3 2.9-2.9 2.9zm0-4.1c-.7 0-1.2.6-1.2 1.3s.6 1.3 1.3 1.3c.7 0 1.3-.6 1.3-1.3s-.7-1.3-1.4-1.3zM19.8 27.9v41.7c0 1.2 1 2.2 2.2 2.2h52c1.2 0 2.2-1 2.2-2.2V27.9H19.8zm-2-1.6h60.4v-2.5H17.8v2.5zm45.7 38.9h-6c-.2 0-.4-.1-.6-.2l-3.3-3.3-2 1.1c-.2.1-.6.1-.8 0l-5.2-3c-.2-.1-.4-.4-.4-.7v-6c0-.3.2-.5.4-.7l5.2-3c.2-.1.6-.1.8 0l5.2 3c.2.1.4.4.4.7v6c0 .3-.2.5-.4.7l-1.8 1 2.8 2.8h5.7c.4 0 .8.4.8.8s-.4.8-.8.8zm-16.7-6.6l4.4 2.5 1.2-.7-1.8-1.8c-.3-.3-.3-.8 0-1.1.3-.3.8-.3 1.1 0l2.1 2.1 1.8-1v-5.1L51.2 51l-4.4 2.5v5.1zm22.9 6.6h-3.1c-.4 0-.8-.4-.8-.8s.4-.8.8-.8h3.1c.4 0 .8.4.8.8s-.3.8-.8.8zm-32-2.3c-.1 0-.3 0-.4-.1l-5.2-3c-.2-.1-.4-.4-.4-.7v-6c0-.3.2-.5.4-.7l5.2-3c.2-.1.6-.1.8 0l5.2 3c.2.1.4.4.4.7v6c0 .3-.2.5-.4.7l-5.2 3c-.1.1-.3.1-.4.1zm-4.4-4.3l4.4 2.5 4.4-2.5v-5.1L37.7 51l-4.4 2.5v5.1zM73.9 62h-7.3c-.4 0-.8-.4-.8-.8s.4-.8.8-.8h7.3c.4 0 .8.4.8.8s-.4.8-.8.8zm-30-11.5c-.1 0-.3 0-.4-.1l-5.2-3c-.2-.1-.3-.4-.3-.7v-6c0-.3.2-.5.4-.7l1.6-1-2.8-4h-4.5c-.4 0-.8-.4-.8-.8s.4-.8.8-.8h4.9c.3 0 .5.1.7.3l3.2 4.4 2.1-1.2c.2-.1.6-.1.8 0l5.2 3c.2.1.4.4.4.7v6c0 .3-.2.5-.4.7l-5.2 3c-.2.2-.3.2-.5.2zm-4.3-4.3l4.4 2.5 4.4-2.5v-5.1L44 38.6l-1.6.9 1.2 1.7c.3.4.2.9-.2 1.1-.4.3-.9.2-1.1-.2L41 40.3l-1.4.8v5.1zm17.8 4.3c-.1 0-.3 0-.4-.1l-5.2-3c-.2-.1-.4-.4-.4-.7v-6c0-.3.2-.5.4-.7l5.2-3c.2-.1.6-.1.8 0l5.2 3c.2.1.4.4.4.7v6c0 .3-.2.5-.4.7l-5.2 3c-.2.1-.3.1-.4.1zM53 46.2l4.4 2.5 4.4-2.5v-5.1l-4.4-2.5-4.4 2.6v5zm-23.5-7.9h-7.3c-.4 0-.8-.4-.8-.8s.4-.8.8-.8h7.3c.4 0 .8.4.8.8s-.4.8-.8.8zm0-3.1h-7.3c-.4 0-.8-.4-.8-.8s.4-.8.8-.8h7.3c.4 0 .8.4.8.8s-.4.8-.8.8z" opacity=".85" fill="#0d47a1"/>
</svg>
