<svg xmlns="http://www.w3.org/2000/svg" viewBox="0 0 96 96">
  <path d="M50.5 82.2H34.6c-1.2 0-1.9-.5-2.3-.9-.4-.5-.5-1-.6-1.4H25c-.4 0-.8-.4-.8-.8v-10H24c-.4 0-.8-.4-.8-.8v-4.8c0-.4.4-.8.8-.8h.2V45.2c0-4 4.7-9.2 10-9.2h.8c-.4-.3-.8-.6-1.1-1-.9-1-3.1-5.5-2-8.9l1.3-3.9-.8-.3c-.4-.2-.6-.6-.4-1l1.8-4.7c.2-.4.6-.6 1-.5l1.8.6c.8-.8 2.7-2.2 6-2.2 3.9 0 6.9 1.4 8 1.9.5-.2 1.3-.4 2.2-.2 1.5.3 8.2 2.9 8.9 3.1.4.2.6.6.5 1L60 25.6l-2 5-5.3 14c-.2.4-.6.6-1 .5-.5-.2-1.2-.5-1.9-.9 1.4 2.9 1.5 5.7 1.5 6.6v9l9.8 5.4 4.5-9.4c.1-.3.4-.5.7-.5h2.1l.8-1.7-1.9-.8c-.4-.2-.6-.7-.4-1.1.2-.4.7-.6 1.1-.4l1.9.9.2-.5c.2-.4.7-.6 1.1-.4.4.2.6.7.4 1.1l-.2.4 13.1 5.9c.4.2.6.7.4 1.1s-.7.6-1.1.4l-13.1-6-.8 1.8 1.5 2c.2.2.2.6.1.8L67 68.2c.1.1.2.1.3.2 1 .5 1.6 1.5 1.9 2.6.4 1.8-.2 3.9-.8 4.8-2 2.8-5.2 2.6-7.5 1.5-6.1-2.9-8.7-4.1-9.5-4.4v8.5c-.1.5-.5.8-.9.8zm-17.2-2.9c0 .2 0 .7.2 1 .2.2.6.3 1.1.3h15.1v-8.4c-1.2-.6-3.5-1.6-7.7-3.6-1.9-.9-2.8-4-3.2-5.7-.1-.2-.1-.4-.1-.5-.1-.5-.3-1-.4-1.4-1.4 1.2-4.1 3.3-6.4 3.3h-7v3.2h7.7c.4 0 .8.4.8.8v10.8c-.1 0-.1.1-.1.2 0-.1 0-.1 0 0zm-7.5-1h5.9v-9.2h-5.9v9.2zm25.9-6.9c.3.1.8.4 1.5.7l8.3 3.9c.8.4 3.7 1.5 5.5-1 .3-.5.8-2.2.5-3.5-.2-.7-.5-1.3-1.1-1.6-.2-.1-.4-.2-.7-.4-.1 0-.2 0-.3-.1-.1-.1-.2-.1-.3-.3-1.8-1-3.9-2.1-4-2.2l-10.9-6-1.2-.7c-.2-.1-.3-.3-.4-.5L45 46.1c-.1-.4.1-.9.6-1 .4-.1.9.1 1 .6L49.7 58v-7.2c0-1.2-.2-5.7-3.6-9.1-.3-.2-.5-.5-.8-.7-1.6-1.4-3.8-2.5-6.8-3-1.3-.2-2.7-.3-4.3-.3-4.6 0-8.4 4.7-8.4 7.6v17.5h6c1.9 0 4.6-2.2 5.9-3.4-1.3-4.6-2.3-8-2.9-10.2-.8-2.9-.8-3-.1-3.3.4-.1.9.1 1 .5 0 .1.1.2.1.3.1.5.7 2.8 3.6 12.7.2.8.5 1.7.8 2.6 0 .1.1.3.1.5.3 1.2 1.1 4.1 2.3 4.7 4.9 2.3 7.1 3.3 8.2 3.8.5.2.7.3.8.3 0 0 0 .1.1.1zm10.7-5.5c.7.4 1.8 1 2.9 1.6l4.2-8.9-1.2-1.7h-1.7l-4.2 9zM47.2 40.5c1.4 1.2 3 2.1 4.3 2.7l4.8-12.5-5.1-2.1c-.4-.2-.6-.6-.4-1l1.8-4.6c.2-.4.6-.6 1-.5l5.1 1.9 1.6-4.2c-2.4-.9-6.8-2.6-7.9-2.8-.7-.1-1.2.1-1.5.2-.3.2-.5.4-.5.5l-1.5 3.5c-.2.4-.6.6-1 .4l-11.4-4.1-1.5-.6-1.3 3.2.8.3 12.2 4.9c.4.2.6.6.5 1l-2.4 8.9c-.4 1.3.5 2.7 1.7 4 .2.4.4.7.7.9zm-8.4-4.1c1.7.3 3.1.8 4.4 1.3-.2-.8-.3-1.6 0-2.4l2.2-8.2-10.7-4.3-1.3 3.8c-.8 2.5.9 6.5 1.7 7.3 1 1.3 3.3 2.3 3.7 2.5zm13.7-9l4.3 1.8L58 26l-4.4-1.6-1.1 3zM38.2 17.1l9.5 3.4 1.2-2.8c.1-.1.1-.3.2-.4-1.3-.6-3.7-1.5-6.6-1.5-2.1 0-3.5.7-4.3 1.3z" opacity=".85" fill="#0d47a1"/>
</svg>
