<svg width="129" height="17" fill="#fff" xmlns="http://www.w3.org/2000/svg"><path d="M.68.424h5.328l3.84 11.136L13.64.424h5.016V16h-3.384V4.48H15.2L11.264 16h-3L4.208 4.48h-.096V16H.68V.424zm25.456 0h4.56L36.312 16H32.52l-1.392-4.104H25.44L24.072 16h-3.696L26.136.424zM30.312 9.4l-1.968-5.856h-.096L26.28 9.4h4.032zM38.04.424h6.24c1.52 0 2.72.104 3.6.312.896.208 1.544.576 1.944 1.104.416.512.624 1.232.624 2.16v2.952c0 1.024-.224 1.824-.672 2.4-.432.576-1.128.984-2.088 1.224-.944.24-2.224.36-3.84.36h-2.064V16H38.04V.424zm6.12 7.944c.976 0 1.664-.112 2.064-.336.4-.24.6-.64.6-1.2V4.336c0-.512-.192-.848-.576-1.008-.368-.16-1.08-.24-2.136-.24h-2.328v5.28h2.376zM53.086.424h3.744V11.08L63.55.424h3.744V16H63.55V5.176L56.83 16h-3.744V.424zM77.552 16.24c-.704 0-1.336-.032-1.896-.096a12.763 12.763 0 01-1.8-.36c-.736-.192-1.344-.44-1.824-.744-.48-.32-.88-.76-1.2-1.32-.336-.56-.504-1.224-.504-1.992v-6.84c0-3.136 2.408-4.704 7.224-4.704 1.232 0 2.88.176 4.944.528V3.52c-1.856-.448-3.488-.672-4.896-.672-.592 0-1.056.016-1.392.048-.32.032-.656.112-1.008.24-.752.256-1.128.824-1.128 1.704v6.624c0 1.408 1.288 2.112 3.864 2.112 1.104 0 2.656-.232 4.656-.696v2.832a24.985 24.985 0 01-5.04.528zM84.985.424h6.312c1.488 0 2.632.112 3.432.336.816.208 1.392.552 1.728 1.032.336.464.504 1.12.504 1.968v1.92c0 .432-.176.84-.528 1.224a2.595 2.595 0 01-1.2.792v.12c.608.064 1.16.328 1.656.792.512.448.768.952.768 1.512v2.4c0 1.264-.504 2.16-1.512 2.688s-2.568.792-4.68.792h-6.48V.424zm6.312 6.336c.592 0 1.032-.048 1.32-.144.288-.096.48-.248.576-.456.112-.224.168-.544.168-.96v-.768c0-.368-.048-.64-.144-.816-.096-.192-.296-.328-.6-.408-.288-.08-.752-.12-1.392-.12h-2.496V6.76h2.568zm.096 6.576c.912 0 1.56-.104 1.944-.312.384-.208.576-.544.576-1.008v-1.248c0-.576-.152-.984-.456-1.224-.288-.24-.808-.36-1.56-.36h-3.168v4.152h2.664zM104.347.424h4.56L114.523 16h-3.792l-1.392-4.104h-5.688L102.283 16h-3.696l5.76-15.576zm4.176 8.976l-1.968-5.856h-.096L104.491 9.4h4.032zM116.25.424h6.24c1.52 0 2.72.104 3.6.312.896.208 1.544.576 1.944 1.104.416.512.624 1.232.624 2.16v2.952c0 1.024-.224 1.824-.672 2.4-.432.576-1.128.984-2.088 1.224-.944.24-2.224.36-3.84.36h-2.064V16h-3.744V.424zm6.12 7.944c.976 0 1.664-.112 2.064-.336.4-.24.6-.64.6-1.2V4.336c0-.512-.192-.848-.576-1.008-.368-.16-1.08-.24-2.136-.24h-2.328v5.28h2.376z"/></svg>