<svg width="129" height="24" viewBox="0 0 129 24" fill="none" xmlns="http://www.w3.org/2000/svg">
<path d="M0.679993 4.24H6.00799L9.84799 15.376L13.64 4.24H18.656V19.816H15.272V8.296H15.2L11.264 19.816H8.26399L4.20799 8.296H4.11199V19.816H0.679993V4.24Z" fill="black" fill-opacity="0.85"/>
<path d="M26.1361 4.24H30.6961L36.3121 19.816H32.5201L31.1281 15.712H25.4401L24.0721 19.816H20.3761L26.1361 4.24ZM30.3121 13.216L28.3441 7.36H28.2481L26.2801 13.216H30.3121Z" fill="black" fill-opacity="0.85"/>
<path d="M38.0394 4.24H44.2794C45.7994 4.24 46.9994 4.344 47.8794 4.552C48.7754 4.76 49.4234 5.128 49.8234 5.656C50.2394 6.168 50.4474 6.888 50.4474 7.816V10.768C50.4474 11.792 50.2234 12.592 49.7754 13.168C49.3434 13.744 48.6474 14.152 47.6874 14.392C46.7434 14.632 45.4634 14.752 43.8474 14.752H41.7834V19.816H38.0394V4.24ZM44.1594 12.184C45.1354 12.184 45.8234 12.072 46.2234 11.848C46.6234 11.608 46.8234 11.208 46.8234 10.648V8.152C46.8234 7.64 46.6314 7.304 46.2474 7.144C45.8794 6.984 45.1674 6.904 44.1114 6.904H41.7834V12.184H44.1594Z" fill="black" fill-opacity="0.85"/>
<path d="M53.0862 4.24H56.8302V14.896L63.5502 4.24H67.2942V19.816H63.5502V8.992L56.8302 19.816H53.0862V4.24Z" fill="black" fill-opacity="0.85"/>
<path d="M77.5524 20.056C76.8484 20.056 76.2164 20.024 75.6564 19.96C75.1124 19.896 74.5124 19.776 73.8564 19.6C73.1204 19.408 72.5124 19.16 72.0324 18.856C71.5524 18.536 71.1524 18.096 70.8324 17.536C70.4964 16.976 70.3284 16.312 70.3284 15.544V8.704C70.3284 5.568 72.7364 4 77.5524 4C78.7844 4 80.4324 4.176 82.4964 4.528V7.336C80.6404 6.888 79.0084 6.664 77.6004 6.664C77.0084 6.664 76.5444 6.68 76.2084 6.712C75.8884 6.744 75.5524 6.824 75.2004 6.952C74.4484 7.208 74.0724 7.776 74.0724 8.656V15.28C74.0724 16.688 75.3604 17.392 77.9364 17.392C79.0404 17.392 80.5924 17.16 82.5924 16.696V19.528C80.8804 19.88 79.2004 20.056 77.5524 20.056Z" fill="black" fill-opacity="0.85"/>
<path d="M84.9847 4.24H91.2967C92.7847 4.24 93.9287 4.352 94.7287 4.576C95.5447 4.784 96.1207 5.128 96.4567 5.608C96.7927 6.072 96.9607 6.728 96.9607 7.576V9.496C96.9607 9.928 96.7847 10.336 96.4327 10.72C96.0967 11.104 95.6967 11.368 95.2327 11.512V11.632C95.8407 11.696 96.3927 11.96 96.8887 12.424C97.4007 12.872 97.6567 13.376 97.6567 13.936V16.336C97.6567 17.6 97.1527 18.496 96.1447 19.024C95.1367 19.552 93.5767 19.816 91.4647 19.816H84.9847V4.24ZM91.2967 10.576C91.8887 10.576 92.3287 10.528 92.6167 10.432C92.9047 10.336 93.0967 10.184 93.1927 9.976C93.3047 9.752 93.3607 9.432 93.3607 9.016V8.248C93.3607 7.88 93.3127 7.608 93.2167 7.432C93.1207 7.24 92.9207 7.104 92.6167 7.024C92.3287 6.944 91.8647 6.904 91.2247 6.904H88.7287V10.576H91.2967ZM91.3927 17.152C92.3047 17.152 92.9527 17.048 93.3367 16.84C93.7207 16.632 93.9127 16.296 93.9127 15.832V14.584C93.9127 14.008 93.7607 13.6 93.4567 13.36C93.1687 13.12 92.6487 13 91.8967 13H88.7287V17.152H91.3927Z" fill="black" fill-opacity="0.85"/>
<path d="M104.347 4.24H108.907L114.523 19.816H110.731L109.339 15.712H103.651L102.283 19.816H98.5871L104.347 4.24ZM108.523 13.216L106.555 7.36H106.459L104.491 13.216H108.523Z" fill="black" fill-opacity="0.85"/>
<path d="M116.25 4.24H122.49C124.01 4.24 125.21 4.344 126.09 4.552C126.986 4.76 127.634 5.128 128.034 5.656C128.45 6.168 128.658 6.888 128.658 7.816V10.768C128.658 11.792 128.434 12.592 127.986 13.168C127.554 13.744 126.858 14.152 125.898 14.392C124.954 14.632 123.674 14.752 122.058 14.752H119.994V19.816H116.25V4.24ZM122.37 12.184C123.346 12.184 124.034 12.072 124.434 11.848C124.834 11.608 125.034 11.208 125.034 10.648V8.152C125.034 7.64 124.842 7.304 124.458 7.144C124.09 6.984 123.378 6.904 122.322 6.904H119.994V12.184H122.37Z" fill="black" fill-opacity="0.85"/>
</svg>
